{"title":"Sex.Drive.UNRATED.1080p.BluRay.x264-HD1080","uid":7899230,"size":8531537278,"categoryP":"video","categoryS":"hd___movies","magnet":"?xt=urn:btih:a56210a7f3f710c36058822f5d0703967193ce55&amp;dn=Sex.Drive.UNRATED.1080p.BluRay.x264-HD1080&amp;tr=udp%3A%2F%2Ftracker.openbittorrent.com%3A80&amp;tr=udp%3A%2F%2Fopen.demonii.com%3A1337&amp;tr=udp%3A%2F%2Ftracker.coppersurfer.tk%3A6969&amp;tr=udp%3A%2F%2Fexodus.desync.com%3A6969","seeders":4,"leechers":1,"uploader":"nitro9999","files":-1,"time":1354918987,"description":"Format                                   : Matroska\nFormat version                           : Version 1\nFile size                                : 7.95 GiB\nDuration                                 : 2h 9mn\nOverall bit rate                         : 8 753 Kbps\nEncoded date                             : UTC 2009-02-08 16:19:12\nWriting application                      : mkvmerge v2.4.1 ('Use Me') built on Dec  5 2008 18:30:05\nWriting library                          : libebml v0.7.7 + libmatroska v0.8.1\n\nVideo\nID                                       : 1\nFormat                                   : AVC\nFormat/Info                              : Advanced Video Codec\nFormat profile                           : &lt;a class=&quot;__cf_email__&quot; href=&quot;/cdn-cgi/l/email-protection&quot; data-cfemail=&quot;4e062729260e027a607f&quot;&gt;[email&amp;#160;protected]&lt;/a&gt;&lt;script cf-hash='f9e31' type=&quot;text/javascript&quot;&gt;\n/* &lt;![CDATA[ */!function(){try{var t=&quot;currentScript&quot;in document?document.currentScript:function(){for(var t=document.getElementsByTagName(&quot;script&quot;),e=t.length;e--;)if(t[e].getAttribute(&quot;cf-hash&quot;))return t[e]}();if(t&amp;&amp;t.previousSibling){var e,r,n,i,c=t.previousSibling,a=c.getAttribute(&quot;data-cfemail&quot;);if(a){for(e=&quot;&quot;,r=parseInt(a.substr(0,2),16),n=2;a.length-n;n+=2)i=parseInt(a.substr(n,2),16)^r,e+=String.fromCharCode(i);e=document.createTextNode(e),c.parentNode.replaceChild(e,c)}}}catch(u){}}();/* ]]&gt; */&lt;/script&gt;\nFormat settings, CABAC                   : Yes\nFormat settings, ReFrames                : 4 frames\nCodec ID                                 : V_MPEG4/ISO/AVC\nDuration                                 : 2h 9mn\nBit rate                                 : 8 110 Kbps\nWidth                                    : 1 920 pixels\nHeight                                   : 1 040 pixels\nDisplay aspect ratio                     : 1.85:1\nFrame rate mode                          : Constant\nFrame rate                               : 23.976 fps\nColor space                              : YUV\nChroma subsampling                       : 4:2:0\nBit depth                                : 8 bits\nScan type                                : Progressive\nBits/(Pixel*Frame)                       : 0.169\nStream size                              : 7.21 GiB (91%)\nWriting library                          : x264 core 66 r1101M b69548a\n\nAudio\nID                                       : 2\nFormat                                   : AC-3\nFormat/Info                              : Audio Coding 3\nMode extension                           : CM (complete main)\nFormat settings, Endianness              : Big\nCodec ID                                 : A_AC3\nDuration                                 : 2h 9mn\nBit rate mode                            : Constant\nBit rate                                 : 640 Kbps\nChannel(s)                               : 6 channels\nChannel positions                        : Front: L C R, Side: L R, LFE\nSampling rate                            : 48.0 KHz\nBit depth                                : 16 bits\nCompression mode                         : Lossy\nStream size                              : 595 MiB (7%)\nLanguage                                 : English\n\nThumbnails: &lt;a href=&quot;\nhttp://img189.imageshack.us/img189/2746/sexdriveunrated1080pblu.jpg&quot; rel=&quot;nofollow&quot; target=&quot;_NEW&quot;&gt;\nhttp://img189.imageshack.us/img189/2746/sexdriveunrated1080pblu.jpg&lt;/a&gt;","torrent":{"xt":"urn:btih:a56210a7f3f710c36058822f5d0703967193ce55","amp;dn":"Sex.Drive.UNRATED.1080p.BluRay.x264-HD1080","amp;tr":["udp%3A%2F%2Ftracker.openbittorrent.com%3A80","udp%3A%2F%2Fopen.demonii.com%3A1337","udp%3A%2F%2Ftracker.coppersurfer.tk%3A6969","udp%3A%2F%2Fexodus.desync.com%3A6969"],"infoHash":"a56210a7f3f710c36058822f5d0703967193ce55","infoHashBuffer":{"type":"Buffer","data":[165,98,16,167,243,247,16,195,96,88,130,47,93,7,3,150,113,147,206,85]},"announce":[],"urlList":[]}}